<svg width="16" height="16" viewBox="0 0 16 16" fill="none" xmlns="http://www.w3.org/2000/svg">
<g clip-path="url(#clip0_85_318)">
<path d="M15.9916 8.15019C15.9916 7.49468 15.9372 7.01632 15.8194 6.52026H8.15942V9.47892H12.6556C12.565 10.2142 12.0755 11.3215 10.9877 12.0655L10.9724 12.1646L13.3944 13.9981L13.5622 14.0144C15.1032 12.6237 15.9916 10.5774 15.9916 8.15019" fill="#1677FF"/>
<path d="M8.1594 15.9458C10.3622 15.9458 12.2114 15.2371 13.5622 14.0147L10.9877 12.0658C10.2987 12.5353 9.37409 12.863 8.1594 12.863C6.00194 12.863 4.17082 11.4723 3.51807 9.55005L3.42239 9.55799L0.904028 11.4625L0.871094 11.552C2.21271 14.1563 4.96848 15.9458 8.1594 15.9458Z" fill="#34A853"/>
<path d="M3.51818 9.54912C3.34594 9.05306 3.24627 8.52151 3.24627 7.97232C3.24627 7.42307 3.34594 6.89159 3.50911 6.39553L3.50455 6.28988L0.954628 4.35474L0.871199 4.39352C0.318256 5.47425 0.000976562 6.68787 0.000976562 7.97232C0.000976562 9.25678 0.318256 10.4703 0.871199 11.5511L3.51818 9.54912" fill="#FBBC05"/>
<path d="M8.1594 3.08269C9.69137 3.08269 10.7248 3.72934 11.314 4.26974L13.6165 2.07286C12.2024 0.788397 10.3622 0 8.1594 0C4.96848 0 2.21271 1.78937 0.871094 4.39371L3.50901 6.39573C4.17082 4.47347 6.00194 3.08269 8.1594 3.08269" fill="#EB4335"/>
</g>
<defs>
<clipPath id="clip0_85_318">
<rect width="16" height="16" fill="white"/>
</clipPath>
</defs>
</svg>
