<svg width="59" height="24" viewBox="0 0 59 24" fill="none" xmlns="http://www.w3.org/2000/svg">
<path d="M46.833 12.8627V12.4441C46.833 10.6851 47.3489 9.26855 48.3806 8.19452C49.4208 7.11204 50.7992 6.5708 52.5159 6.5708C54.2411 6.5708 55.6195 7.11204 56.6513 8.19452C57.683 9.26855 58.1988 10.6851 58.1988 12.4441V12.8627C58.1988 14.6302 57.683 16.0552 56.6513 17.1377C55.6195 18.2117 54.2411 18.7487 52.5159 18.7487C50.7908 18.7487 49.4123 18.2117 48.3806 17.1377C47.3489 16.0552 46.833 14.6302 46.833 12.8627ZM49.2432 12.406V12.9008C49.2432 14.0763 49.5222 15.0404 50.0804 15.793C50.6385 16.5372 51.4461 16.9093 52.5032 16.9093C53.5857 16.9093 54.406 16.5372 54.9641 15.793C55.5223 15.0404 55.8014 14.0721 55.8014 12.8881V12.406C55.8014 11.2305 55.5223 10.2749 54.9641 9.53917C54.406 8.80342 53.5857 8.43554 52.5032 8.43554C51.4461 8.43554 50.6385 8.80342 50.0804 9.53917C49.5222 10.2749 49.2432 11.2305 49.2432 12.406Z" fill="#111827"/>
<path d="M42.3812 18.4836V6.8638H44.7786V18.4836H42.3812ZM42.1401 2.55079C42.1401 2.16177 42.2628 1.83618 42.508 1.57402C42.7617 1.3034 43.1211 1.16809 43.5862 1.16809C44.0514 1.16809 44.4065 1.29917 44.6518 1.56134C44.9055 1.8235 45.0323 2.15332 45.0323 2.55079C45.0323 2.93981 44.9055 3.26963 44.6518 3.54025C44.3981 3.81087 44.0387 3.94618 43.5736 3.94618C43.1084 3.94618 42.7532 3.81087 42.508 3.54025C42.2628 3.26963 42.1401 2.93981 42.1401 2.55079Z" fill="#111827"/>
<path d="M29.4292 22.6426L30.1015 20.9174C30.4736 21.2219 30.998 21.5094 31.6745 21.78C32.3595 22.0591 33.1121 22.1987 33.9324 22.1987C34.8542 22.1987 35.6449 21.8858 36.3045 21.2599C36.9642 20.6341 37.294 19.5813 37.294 18.1013V16.8581C36.9134 17.3825 36.4187 17.8095 35.8098 18.1394C35.2009 18.4692 34.4398 18.6341 33.5265 18.6341C32.0889 18.6341 30.9514 18.0971 30.1142 17.023C29.2855 15.9406 28.8711 14.5536 28.8711 12.8623V12.4563C28.8711 10.765 29.277 9.36957 30.0889 8.27018C30.9092 7.16232 32.0762 6.6084 33.5899 6.6084C34.3849 6.6084 35.1164 6.77754 35.7845 7.11581C36.4525 7.45409 36.9599 7.88539 37.3067 8.40971H37.3194L37.332 6.8621H39.6407V17.8349C39.6407 19.8561 39.1502 21.3868 38.1693 22.427C37.1967 23.4756 35.8606 24 34.1608 24C33.1798 24 32.2792 23.8689 31.4588 23.6067C30.647 23.3446 29.9705 23.0232 29.4292 22.6426ZM31.2432 12.8496C31.2432 14.042 31.4927 15.0061 31.9916 15.7418C32.499 16.4776 33.2897 16.8455 34.3637 16.8455C35.0826 16.8455 35.6957 16.6509 36.2031 16.2619C36.7105 15.8645 37.0699 15.412 37.2813 14.9046V10.3506C37.0614 9.84315 36.6978 9.39917 36.1904 9.01861C35.6914 8.62959 35.0826 8.43508 34.3637 8.43508C33.2897 8.43508 32.499 8.81564 31.9916 9.57676C31.4927 10.3294 31.2432 11.2977 31.2432 12.4817V12.8496Z" fill="#111827"/>
<path d="M16.085 12.8629V12.457C16.085 10.7656 16.5205 9.37022 17.3915 8.27083C18.2626 7.16298 19.4211 6.60905 20.8672 6.60905C21.7552 6.60905 22.5036 6.75282 23.1125 7.04035C23.7298 7.32789 24.2076 7.70845 24.5459 8.18203V0H26.88V18.4825H24.6093L24.5966 16.7954H24.584C24.2457 17.3281 23.7594 17.7848 23.1252 18.1654C22.4994 18.5459 21.7467 18.7362 20.8672 18.7362C19.3789 18.7362 18.2076 18.1823 17.3535 17.0744C16.5078 15.9581 16.085 14.5543 16.085 12.8629ZM18.4951 12.8502C18.4951 14.0427 18.7446 15.0194 19.2435 15.7805C19.7509 16.5417 20.5374 16.9222 21.603 16.9222C22.3218 16.9222 22.9307 16.7235 23.4296 16.326C23.937 15.9285 24.3007 15.4719 24.5205 14.956V10.2497C24.3091 9.74233 23.9497 9.31526 23.4423 8.96852C22.9349 8.61333 22.3218 8.43574 21.603 8.43574C20.529 8.43574 19.7425 8.8163 19.2435 9.57742C18.7446 10.3301 18.4951 11.2984 18.4951 12.4824V12.8502Z" fill="#111827"/>
<path d="M4.36377 12.85V12.4441C4.36377 10.6766 4.85849 9.25586 5.84792 8.18184C6.84582 7.10781 8.16929 6.5708 9.81835 6.5708C11.4505 6.5708 12.7021 7.07399 13.5731 8.08035C14.4442 9.07827 14.8797 10.4821 14.8797 12.2919V13.0403H5.63228V11.5434H12.5583V11.4673C12.5583 10.6555 12.3469 9.94087 11.9241 9.32352C11.5012 8.69771 10.7951 8.3848 9.80567 8.3848C8.79086 8.3848 8.0213 8.74845 7.49698 9.47574C6.98112 10.203 6.72319 11.1417 6.72319 12.2919V12.8627C6.72319 14.1059 6.99804 15.0953 7.54772 15.8311C8.10587 16.5668 8.90926 16.9347 9.95789 16.9347C10.6767 16.9347 11.2856 16.7909 11.7845 16.5034C12.2835 16.2159 12.6725 15.8353 12.9516 15.3617L14.7909 16.2497C14.4526 16.9516 13.8903 17.5436 13.1038 18.0256C12.3173 18.5077 11.2771 18.7487 9.98326 18.7487C8.19889 18.7487 6.81622 18.2202 5.83524 17.163C4.85426 16.0975 4.36377 14.6598 4.36377 12.85Z" fill="#111827"/>
<path d="M0 18.4825V0H2.38479V18.4825H0Z" fill="#111827"/>
</svg>
