<svg width="20" height="20" viewBox="0 0 20 20" fill="none" xmlns="http://www.w3.org/2000/svg">
<path d="M7.34375 2.1875C7.42965 2.1875 7.49993 2.25787 7.5 2.34375V3.59375H12.5V2.34375C12.5001 2.25796 12.5705 2.18764 12.6562 2.1875H13.75C13.8359 2.1875 13.9062 2.25787 13.9062 2.34375V3.59375H17.1875C17.5332 3.59375 17.8124 3.8731 17.8125 4.21875V17.1875C17.8125 17.5332 17.5332 17.8125 17.1875 17.8125H2.8125C2.46692 17.8124 2.1875 17.5331 2.1875 17.1875V4.21875C2.18757 3.87319 2.46696 3.59389 2.8125 3.59375H6.09375V2.34375C6.09382 2.25796 6.16422 2.18764 6.25 2.1875H7.34375ZM3.59375 8.98438V16.4062H16.4062V8.98438H3.59375ZM3.59375 5V7.65625H16.4062V5H13.9062V5.9375C13.9062 6.02344 13.8359 6.09375 13.75 6.09375H12.6562C12.5704 6.09361 12.5 6.02335 12.5 5.9375V5H7.5V5.9375C7.5 6.02344 7.42969 6.09375 7.34375 6.09375H6.25C6.16418 6.09361 6.09375 6.02335 6.09375 5.9375V5H3.59375Z" fill="black" fill-opacity="0.88"/>
</svg>
