<svg width="20" height="20" viewBox="0 0 20 20" fill="none" xmlns="http://www.w3.org/2000/svg">
<path d="M5.99951 0C6.55176 0 6.99944 0.447772 6.99951 1C6.99951 1.55228 6.5518 2 5.99951 2H1.99951V18H5.99951C6.55176 18 6.99944 18.4478 6.99951 19C6.99951 19.5523 6.5518 20 5.99951 20H1.99951C0.895063 19.9999 -0.000487251 19.1045 -0.000488281 18V2C-0.000421424 0.895575 0.895104 0.00014158 1.99951 0H5.99951ZM11.5757 3.04688C11.6518 3.04688 11.7242 3.07433 11.7808 3.12305L19.1597 9.52734C19.2272 9.5861 19.2817 9.65877 19.3188 9.74023C19.356 9.82174 19.3755 9.91044 19.3755 10C19.3755 10.0896 19.356 10.1782 19.3188 10.2598C19.2817 10.3413 19.2273 10.4139 19.1597 10.4727L11.7339 16.9141C11.7066 16.9394 11.6694 16.9531 11.6323 16.9531H9.84521C9.7009 16.9529 9.63447 16.7754 9.74365 16.6797L16.5835 10.7422H5.15576C5.06994 10.742 4.99951 10.6718 4.99951 10.5859V9.41406C4.99958 9.32827 5.06998 9.25796 5.15576 9.25781H16.5854L9.74561 3.32031C9.63659 3.22657 9.70291 3.04709 9.84717 3.04688H11.5757Z" fill="black" fill-opacity="0.88"/>
</svg>
