<svg width="16" height="16" viewBox="0 0 16 16" fill="none" xmlns="http://www.w3.org/2000/svg">
<path d="M7.06348 1.4668C8.71387 -0.181641 11.2256 -0.441406 13.1436 0.691406C13.2623 0.761835 13.3017 0.914211 13.2314 1.0332C13.2198 1.0507 13.208 1.06646 13.1924 1.08203L9.8252 4.44922L11.1514 5.77539L14.5166 2.41016C14.6143 2.3125 14.7725 2.3125 14.8701 2.41016C14.8856 2.42378 14.8995 2.44156 14.9092 2.45898C16.0417 4.37689 15.7821 6.88881 14.1338 8.53906C12.8234 9.84944 10.9676 10.2811 9.29785 9.83594L3.57715 15.5566C3.52062 15.615 3.42285 15.6109 3.3623 15.5508L0.0478516 12.2363C-0.0126657 12.1758 -0.0165117 12.0801 0.0419922 12.0215L5.76465 6.29883C5.3213 4.6309 5.75495 2.77539 7.06348 1.4668ZM10.8721 1.41602C10.3557 1.37753 9.83692 1.45056 9.35156 1.63086C8.86617 1.8112 8.42555 2.09462 8.05957 2.46094C6.92488 3.5957 6.70607 5.29886 7.40332 6.65234L6.37207 7.68359C6.3708 7.68359 6.37027 7.68222 6.37012 7.68164L1.87598 12.1758L3.42285 13.7227L8.77441 8.36914L8.77637 8.37109L8.94824 8.19922C10.3017 8.89619 12.005 8.67754 13.1396 7.54297C13.9051 6.77942 14.2586 5.74398 14.1865 4.73242L11.5928 7.32617C11.4755 7.44329 11.3161 7.50871 11.1504 7.50879C10.9847 7.50879 10.8253 7.44316 10.708 7.32617L8.27637 4.89453C8.15924 4.77727 8.0929 4.61787 8.09277 4.45215C8.09277 4.28629 8.15918 4.12713 8.27637 4.00977L10.8721 1.41602Z" fill="black" fill-opacity="0.88"/>
</svg>
