<svg width="18" height="17" viewBox="0 0 18 17" fill="none" xmlns="http://www.w3.org/2000/svg">
<path d="M1.61816 3.76465C3.95215 0.567383 8.44043 -0.141602 11.6377 2.18262C12.0595 2.48725 12.4366 2.82919 12.7705 3.2002V3.19824C14.2098 3.58695 15.5225 4.44834 16.4619 5.7373C18.2078 8.14157 18.163 11.3702 16.4424 13.7061V16.3232C16.4423 16.6688 16.1629 16.9481 15.8174 16.9482C15.7511 16.9482 15.6864 16.9365 15.624 16.917L13.1416 16.1084C11.0499 16.7998 8.76852 16.4188 7.02832 15.1514L7.03809 15.1436C6.36632 15.1065 5.69033 14.9736 5.03613 14.7412L2.56348 15.5205C2.23544 15.624 1.8839 15.4422 1.78027 15.1123C1.76076 15.0538 1.751 14.9911 1.75098 14.9287L1.73535 12.3389C-0.182614 9.85645 -0.262687 6.3623 1.61816 3.76465ZM14.1064 5.3584C14.9735 7.56146 14.7314 10.1456 13.2393 12.2021C12.2959 13.4951 10.9872 14.3935 9.54395 14.8369L9.54785 14.8389C10.6278 15.1415 11.7941 15.1084 12.8877 14.7021L13.1221 14.6045L15.0361 15.249L15.0166 13.2178L15.1729 13.0225C16.6669 11.171 16.7469 8.52243 15.3291 6.57715C14.9796 6.09092 14.5673 5.68844 14.1182 5.36621L14.1064 5.3584ZM10.8174 3.31543C8.24316 1.45215 4.63379 2.02246 2.75098 4.60449C1.20411 6.73535 1.31348 9.63965 2.96582 11.6553L3.12207 11.8311L3.1416 13.8623L5.0752 13.2568L5.30957 13.3545C7.74113 14.3016 10.5421 13.5087 12.1064 11.3623C13.9716 8.79599 13.3992 5.19244 10.8174 3.31543ZM4.72266 7.22168C5.13462 7.22168 5.48413 7.5715 5.48438 8.00293C5.48438 8.43457 5.13477 8.78418 4.72266 8.78418C4.27159 8.78407 3.92188 8.4345 3.92188 8.00293C3.92212 7.57157 4.27175 7.22179 4.72266 7.22168ZM7.45703 7.22168C7.86899 7.22168 8.2185 7.5715 8.21875 8.00293C8.21875 8.43457 7.86914 8.78418 7.45703 8.78418C7.00597 8.78407 6.65625 8.4345 6.65625 8.00293C6.6565 7.57157 7.00613 7.22179 7.45703 7.22168ZM10.1914 7.22168C10.6034 7.22168 10.9529 7.5715 10.9531 8.00293C10.9531 8.43457 10.6035 8.78418 10.1914 8.78418C9.74034 8.78407 9.39062 8.4345 9.39062 8.00293C9.39087 7.57157 9.7405 7.22179 10.1914 7.22168Z" fill="black" fill-opacity="0.88"/>
</svg>
